<?xml version="1.0" standalone="no"?>
<!DOCTYPE svg PUBLIC "-//W3C//DTD SVG 20010904//EN"
 "http://www.w3.org/TR/2001/REC-SVG-20010904/DTD/svg10.dtd">
<svg version="1.0" xmlns="http://www.w3.org/2000/svg"
 width="526.000000pt" height="250.000000pt" viewBox="0 0 526.000000 250.000000"
 preserveAspectRatio="xMidYMid meet">
<metadata>
Created by potrace 1.16, written by Peter Selinger 2001-2019
</metadata>
<g transform="translate(0.000000,250.000000) scale(0.100000,-0.100000)"
fill="#000000" stroke="none">
<path d="M35 2465 c22 -19 66 -54 97 -77 l57 -43 1 -1174 c0 -1017 2 -1172 14
-1168 39 15 406 301 406 316 0 9 6 23 13 30 27 29 -32 -10 -156 -102 l-127
-95 0 1096 -1 1097 -22 25 c-27 30 -113 100 -144 118 -13 7 -56 12 -100 12
l-78 -1 40 -34z"/>
<path d="M840 2428 c-12 -40 -28 -93 -35 -118 -14 -43 -13 -50 14 -134 l28
-88 42 133 c58 185 69 220 74 252 4 27 3 27 -49 27 l-53 0 -21 -72z"/>
<path d="M1350 2485 c0 -17 19 -35 99 -95 l60 -45 1 -1174 c0 -969 2 -1172 13
-1168 8 3 255 186 550 406 296 221 544 404 552 407 8 4 232 -158 563 -405 302
-226 552 -411 556 -411 3 0 6 526 6 1169 l0 1170 60 46 c60 47 80 71 80 99 0
28 -22 18 -117 -55 l-93 -71 -2 -1103 -3 -1103 -154 114 c-85 62 -157 117
-160 121 -3 5 -17 14 -31 21 -14 7 -66 46 -116 85 -103 81 -532 400 -546 405
-4 2 -8 -5 -8 -16 0 -29 -23 -45 -42 -29 -9 6 -18 20 -20 30 -2 13 -62 -26
-268 -179 -146 -107 -276 -206 -291 -220 -14 -13 -30 -24 -37 -24 -7 0 -12 -4
-12 -8 0 -4 -25 -23 -54 -41 -30 -18 -56 -36 -58 -40 -3 -9 -275 -211 -283
-211 -3 0 -5 490 -5 1089 l0 1088 -27 29 c-14 16 -58 53 -96 82 -69 51 -117
67 -117 37z"/>
<path d="M2662 2183 l-2 -323 210 0 210 0 0 100 0 100 111 0 c84 0 110 3 107
13 -3 6 -14 12 -26 11 -12 0 -69 -1 -127 -2 l-105 -2 0 -85 0 -85 -185 0 -185
0 -3 298 -2 297 -3 -322z"/>
<path d="M4280 2478 c0 -22 29 -123 85 -302 l28 -90 29 90 28 89 -33 115 -34
115 -51 3 c-49 3 -52 1 -52 -20z"/>
<path d="M5050 2476 c-20 -13 -61 -47 -93 -76 l-57 -52 0 -1098 0 -1098 -117
87 c-65 48 -130 94 -144 103 l-26 16 15 -31 c10 -22 74 -76 212 -179 108 -82
200 -148 203 -148 4 0 7 528 7 1173 l1 1172 57 43 c31 23 75 58 97 77 l40 34
-80 0 c-67 0 -86 -4 -115 -23z"/>
<path d="M1970 2076 c0 -14 15 -16 110 -16 l110 0 0 -100 0 -100 205 0 205 0
0 25 0 25 -195 0 -195 0 0 85 0 85 -89 0 c-49 0 -103 3 -120 6 -24 5 -31 3
-31 -10z"/>
<path d="M710 989 c0 -207 12 -323 30 -302 4 4 22 56 39 116 35 120 37 96 -22
300 -17 59 -34 107 -39 107 -4 0 -8 -99 -8 -221z"/>
<path d="M4510 1197 c0 -8 -13 -54 -28 -103 -44 -138 -53 -179 -42 -211 5 -15
21 -68 35 -118 23 -77 28 -87 38 -70 16 27 23 515 8 515 -6 0 -11 -6 -11 -13z"/>
<path d="M954 1164 c-7 -21 -28 -93 -48 -159 l-36 -120 2 -193 3 -193 223 166
c186 138 222 168 212 180 -7 8 -17 12 -24 8 -29 -17 -281 -207 -284 -215 -2
-4 -10 -8 -18 -8 -11 0 -14 49 -16 287 -3 234 -5 279 -14 247z"/>
<path d="M4271 918 c-1 -289 -4 -313 -35 -274 -6 8 -73 60 -149 115 -127 94
-163 111 -155 76 2 -8 100 -87 218 -175 l215 -161 3 196 c3 211 -1 233 -78
455 l-19 55 0 -287z"/>
<path d="M2570 716 c-25 -14 -54 -25 -65 -26 -30 0 -45 -19 -45 -55 0 -17 -13
-56 -29 -86 -37 -69 -46 -128 -31 -220 8 -54 17 -81 35 -99 23 -24 24 -27 9
-48 l-15 -22 -27 21 c-27 21 -27 21 -30 1 -4 -27 24 -92 40 -92 7 0 31 18 53
40 l42 41 46 -13 c53 -14 62 -28 18 -28 -29 0 -29 -1 -20 -32 5 -18 18 -41 28
-52 25 -25 43 -12 66 49 16 42 18 43 54 38 41 -6 84 11 115 46 13 14 26 19 43
15 32 -8 56 13 48 43 -3 13 -1 23 5 23 18 0 10 29 -10 35 -18 6 -17 9 15 54
37 52 42 70 23 89 -21 21 -36 14 -84 -37 -45 -48 -46 -48 -75 -34 -20 10 -42
13 -65 9 -43 -9 -44 2 -7 87 18 44 27 85 31 142 4 75 3 81 -21 103 -37 35 -92
38 -147 8z m105 -2 c21 -8 45 -56 45 -91 0 -15 -16 -80 -36 -145 -23 -73 -34
-123 -29 -135 5 -11 9 -14 12 -6 7 18 64 26 96 14 32 -12 27 -32 -6 -30 -40 4
-67 -1 -67 -10 0 -6 21 -11 46 -13 37 -2 51 -9 67 -30 41 -55 -16 -118 -106
-118 -46 0 -47 0 -69 -51 l-22 -52 -18 23 c-22 27 -23 44 -4 37 9 -4 21 5 31
20 14 21 15 27 4 34 -8 5 -18 9 -24 9 -57 1 -134 49 -160 101 -35 67 -26 213
18 273 13 18 17 18 106 2 51 -10 95 -15 98 -12 6 5 -49 21 -129 37 -41 8 -55
15 -51 25 7 19 29 18 37 -1 3 -9 18 -15 36 -15 29 0 40 13 20 25 -5 3 -10 1
-10 -4 0 -6 -4 -11 -10 -11 -19 0 -10 17 16 29 23 10 25 13 12 24 -28 22 -26
41 6 59 33 18 64 22 91 12z"/>
</g>
</svg>
